PathFileType	4	(X/Y/Z)	E:\Qualisys_Data\Carbon_Farble_Plate\Data\Amateur_Runner\S14\T2\S14T2V24_c3d.trc
DataRate	CameraRate	NumFrames	NumMarkers	Units	OrigDataRate	OrigDataStartFrame	OrigNumFrames
200.000000	200.000000	5	39	mm	200.000000	0	315
Frame#	Time	LSHO			RSHO			LICST			RICST			LASIS			LHEEL			RASIS			LTROC			RTROC			SACR			LTH1			LSK4			LTH2			LTH3			RHM5			LSK2			LTH4			RTH1			LTOE			RTH2			RTH3			RTH4			LLEP			RLEP			LSK1			LSK3			RSK1			LHM5			RSK2			LFT1			RSK3			RSK4			LLME			RLME			RTOE			RHEEL			RFT1			RFT2			LFT2			
		X1	Y1	Z1	X2	Y2	Z2	X3	Y3	Z3	X4	Y4	Z4	X5	Y5	Z5	X6	Y6	Z6	X7	Y7	Z7	X8	Y8	Z8	X9	Y9	Z9	X10	Y10	Z10	X11	Y11	Z11	X12	Y12	Z12	X13	Y13	Z13	X14	Y14	Z14	X15	Y15	Z15	X16	Y16	Z16	X17	Y17	Z17	X18	Y18	Z18	X19	Y19	Z19	X20	Y20	Z20	X21	Y21	Z21	X22	Y22	Z22	X23	Y23	Z23	X24	Y24	Z24	X25	Y25	Z25	X26	Y26	Z26	X27	Y27	Z27	X28	Y28	Z28	X29	Y29	Z29	X30	Y30	Z30	X31	Y31	Z31	X32	Y32	Z32	X33	Y33	Z33	X34	Y34	Z34	X35	Y35	Z35	X36	Y36	Z36	X37	Y37	Z37	X38	Y38	Z38	X39	Y39	Z39	

1	0	-3239.470947265625	1467.272705078125	-503.2294921875	-3290.70068359375	1470.861083984375	-214.3792724609375	-3328.9833984375	1015.470031738281	-493.9363098144531	-3301.15966796875	1024.6875	-220.5292053222656	-3297.83154296875	958.8440551757812	-473.0792541503906	-3892.375244140625	321.5983276367188	-382.6838989257812	-3278.250732421875	981.6363525390625	-242.2720336914062	-3455.81494140625	929.4262084960938	-504.4624938964844	-3397.018798828125	911.72802734375	-170.4466400146484	-3454.04296875	1031.67041015625	-356.1305541992188	-3499.12548828125	704.4256591796875	-513.8823852539062	-3782.406982421875	447.42041015625	-459.6536560058594	-3563.055419921875	739.4434814453125	-481.0088500976562	-3533.755859375	612.7093505859375	-491.0727844238281	-3191.977783203125	145.35546875	-193.7902069091797	-3716.961181640625	522.9982299804688	-472.14453125	-3601.516845703125	650.1588745117188	-464.3410949707031	-3173.534912109375	770.3605346679688	-196.5128479003906	-3837.441162109375	66.2784423828125	-426.9320373535156	-3238.56005859375	730.3618774414062	-183.6697692871094	-3118.5947265625	688.5298461914062	-222.7548828125	-3186.22900390625	644.2260131835938	-203.1642608642578	-3615.755859375	569.3807373046875	-476.6983642578125	-3135.61376953125	597.6265869140625	-207.3138275146484	-3655.150146484375	470.0684204101562	-482.4473876953125	-3723.394775390625	392.8576049804688	-474.4851989746094	-3146.91845703125	475.4708862304688	-206.5559997558594	-3885.619384765625	129.5608673095703	-479.0082092285156	-3228.004150390625	502.4940795898438	-201.5108947753906	-3907.322998046875	301.3941345214844	-355.838134765625	-3187.144775390625	380.2061462402344	-217.5169219970703	-3261.236328125	412.0199890136719	-210.4723663330078	-3862.752685546875	284.6565551757812	-448.6202087402344	-3293.305419921875	238.7075653076172	-228.5209503173828	-3112.716796875	132.1925811767578	-253.4602508544922	-3356.007080078125	226.4552001953125	-283.5280151367188	-3349.447265625	189.9850158691406	-308.7176513671875	-3363.38916015625	200.3008422851562	-255.4073791503906	-3927.21826171875	309.78955078125	-409.8299865722656
2	0.005	-3216.769775390625	1469.782348632812	-501.1656494140625	-3270.561767578125	1473.276977539062	-214.3268585205078	-3305.677734375	1017.831665039062	-494.0516052246094	-3278.59423828125	1026.628051757812	-220.7722778320312	-3274.59814453125	960.4459228515624	-473.3288269042969	-3872.884033203125	331.23583984375	-382.431396484375	-3255.324462890625	983.7273559570312	-242.9339752197266	-3433.4404296875	933.1032104492188	-505.3392333984375	-3375.208740234375	914.507568359375	-171.0483856201172	-3430.9599609375	1034.23779296875	-356.7528076171875	-3479.4609375	708.6705932617188	-514.3233642578125	-3765.919677734375	455.5093078613281	-458.8466491699219	-3541.57373046875	743.8271484375	-479.6818542480469	-3514.7607421875	617.942138671875	-492.0355529785156	-3149.635498046875	142.6100616455078	-193.8936920166016	-3699.284912109375	530.6175537109375	-471.2117309570312	-3581.7568359375	655.0817260742188	-463.79296875	-3152.5087890625	771.65576171875	-196.9564208984375	-3831.876708984375	77.50324249267578	-428.86572265625	-3217.10205078125	732.1271362304688	-184.3433532714844	-3098.186279296875	689.0953979492188	-222.1781311035156	-3165.593017578125	645.3595581054688	-203.2532958984375	-3596.207275390625	573.5806884765625	-476.672119140625	-3114.808837890625	599.01904296875	-207.7889251708984	-3636.8037109375	476.1786499023438	-483.0289916992188	-3706.71630859375	399.7167358398438	-474.9466857910156	-3121.010009765625	475.2418212890625	-205.7931671142578	-3878.814453125	141.3885345458984	-480.2078247070312	-3203.58984375	498.3975219726562	-200.8663635253906	-3893.355712890625	312.3131103515625	-356.4181213378906	-3155.81494140625	378.5791015625	-216.8779296875	-3232.05419921875	406.3179931640625	-210.7757263183594	-3847.37646484375	294.4765625	-449.1599731445312	-3255.769775390625	231.1604919433594	-228.823974609375	-3068.24951171875	134.3361358642578	-252.8080749511719	-3316.45361328125	214.7265319824219	-284.4825439453125	-3307.877197265625	179.0014190673828	-309.8466186523438	-3323.376708984375	188.7914276123047	-256.3173522949219	-3909.757568359375	322.0644226074219	-410.9504699707031
3	0.01	-3193.89599609375	1472.566284179688	-500.2586364746094	-3249.6318359375	1475.145263671875	-213.5151519775391	-3281.853271484375	1019.940002441406	-493.9363403320312	-3255.05810546875	1028.629638671875	-220.8675384521484	-3251.468505859375	962.4646606445312	-473.9452514648438	-3857.533447265625	342.7722778320312	-383.5479431152344	-3231.630615234375	985.6641235351562	-242.7080993652344	-3410.956787109375	936.539306640625	-506.3876953125	-3352.345458984375	916.6815795898438	-171.7143096923828	-3408.120849609375	1036.85107421875	-357.2555236816406	-3459.372802734375	713.4911499023438	-514.5884399414062	-3748.50439453125	462.8337097167969	-458.8305053710938	-3520.60302734375	748.4584350585938	-479.1441345214844	-3494.98046875	622.5344848632812	-493.0808715820312	-3106.83642578125	141.0193939208984	-194.4935455322266	-3679.63427734375	535.3388061523438	-470.9639282226562	-3560.65869140625	659.52587890625	-463.1176452636719	-3130.1552734375	772.4072875976562	-196.6531372070312	-3825.710693359375	88.3914794921875	-430.8298034667969	-3195.553466796875	733.2412109375	-184.0844573974609	-3078.17333984375	689.8101806640625	-222.2518310546875	-3144.4423828125	646.1311645507812	-203.1940155029297	-3577.08056640625	578.9711303710938	-476.9348754882812	-3093.318603515625	599.2837524414062	-207.2940063476562	-3619.79638671875	480.8313293457031	-483.3468322753906	-3690.46337890625	406.0562133789062	-475.3506469726562	-3096.1923828125	474.4678039550781	-204.9909973144531	-3869.37451171875	153.8234252929688	-481.9865417480469	-3179.322021484375	493.3946533203125	-199.7719116210938	-3875.423095703125	323.2142944335938	-355.9066162109375	-3126.41943359375	375.8258056640625	-216.2374267578125	-3203.361572265625	400.5071411132812	-210.5328216552734	-3834.44873046875	304.0104675292969	-450.8527526855469	-3217.559326171875	223.5705261230469	-229.5659942626953	-3025.20849609375	138.7587432861328	-253.3725738525391	-3277.7431640625	204.4172515869141	-285.2865295410156	-3266.996826171875	169.25341796875	-310.8854064941406	-3282.64111328125	177.5815887451172	-258.1155395507812	-3892.55419921875	333.9802856445312	-409.8313903808594
4	0.015	-3171.944091796875	1474.538452148438	-498.8577880859375	-3228.9765625	1476.94580078125	-212.5845184326172	-3258.8056640625	1021.945556640625	-494.1838684082031	-3232.857666015625	1030.580322265625	-221.0307159423828	-3228.431884765625	963.914306640625	-473.5415954589844	-3842.522705078125	352.3815307617188	-380.5649719238281	-3210.58154296875	986.6495971679688	-243.4784240722656	-3388.58642578125	939.299560546875	-507.0338134765625	-3330.673828125	918.148193359375	-172.3094635009766	-3384.630126953125	1039.089477539062	-358.0314025878906	-3437.836181640625	716.4596557617188	-513.9404296875	-3729.487060546875	469.8544311523438	-457.5007629394531	-3498.4169921875	751.8369140625	-478.1404418945312	-3474.255859375	625.77685546875	-493.9540710449219	-3064.15478515625	140.0101776123047	-195.1012573242188	-3659.653564453125	541.431884765625	-470.0907592773438	-3539.546142578125	663.3218383789062	-462.9281616210938	-3110.858154296875	772.5382690429688	-196.8647766113281	-3814.964111328125	99.21390533447266	-433.9148254394531	-3174.973388671875	733.4769897460938	-185.3018035888672	-3056.597412109375	690.3261108398438	-221.8138427734375	-3125.6982421875	646.1729736328125	-203.5317535400391	-3555.65966796875	582.6246337890625	-476.8327026367188	-3073.104736328125	599.1575317382812	-207.0318145751953	-3601.205810546875	484.3624572753906	-483.9483337402344	-3672.899169921875	412.3953552246094	-475.670166015625	-3070.521728515625	473.6572875976562	-204.6505126953125	-3858.1259765625	165.2389068603516	-482.84765625	-3155.1806640625	487.9794006347656	-196.9426727294922	-3861.00927734375	334.5178833007812	-354.1961364746094	-3096.825927734375	373.9578247070312	-216.2280731201172	-3174.597412109375	393.9872131347656	-210.4154052734375	-3821.003173828125	314.9465026855469	-450.64599609375	-3179.52197265625	215.9838409423828	-230.2222290039062	-2982.833740234375	142.6530303955078	-253.1286315917969	-3238.098876953125	194.1570739746094	-286.3136291503906	-3224.600341796875	159.7255401611328	-312.7327880859375	-3241.4970703125	166.4543914794922	-259.0105285644531	-3877.10107421875	344.8745727539062	-408.3683776855469
5	0.02	-3150.06884765625	1476.463012695312	-497.0533752441406	-3208.5234375	1478.18994140625	-212.1912536621094	-3235.341796875	1023.743591308594	-494.5758972167969	-3211.181396484375	1030.66650390625	-221.3189544677734	-3205.802734375	965.6632080078124	-474.0489196777344	-3827.686279296875	363.2523803710938	-379.3988037109375	-3188.752685546875	987.5984497070312	-244.1376495361328	-3365.9208984375	941.8175659179688	-507.7595825195312	-3308.9677734375	918.9075927734376	-173.0560760498047	-3362.194091796875	1040.742431640625	-358.34130859375	-3415.74365234375	718.682373046875	-514.3101806640625	-3709.72802734375	477.0814208984375	-456.697998046875	-3475.810302734375	753.9412841796875	-477.4024963378906	-3453.02587890625	628.8045654296875	-495.331787109375	-3022.923583984375	138.7354888916016	-196.0255126953125	-3638.987548828125	547.0391845703125	-470.4309692382812	-3517.502197265625	665.5158081054688	-462.6487731933594	-3089.697021484375	771.6766967773438	-196.3089447021484	-3803.728271484375	108.9093551635742	-436.8586730957031	-3155.070068359375	734.0084228515625	-186.1139068603516	-3036.58935546875	688.583984375	-221.8146667480469	-3105.0849609375	645.7012939453125	-204.3649597167969	-3533.78173828125	585.0337524414062	-477.5205993652344	-3053.352783203125	598.4286499023438	-206.5213317871094	-3583.137451171875	488.9598083496094	-484.6207275390625	-3655.33544921875	417.3697814941406	-475.7377624511719	-3047.1748046875	472.6848754882812	-204.2178344726562	-3846.232421875	178.5601348876953	-484.9025573730469	-3132.18505859375	483.4262390136719	-199.098876953125	-3844.67333984375	343.8467407226562	-352.4539489746094	-3067.313720703125	371.5733947753906	-215.6157684326172	-3146.555908203125	388.70556640625	-210.5962524414062	-3808.3447265625	327.4540100097656	-450.008544921875	-3142.0419921875	209.3058013916016	-230.6193542480469	-2941.162109375	147.6050720214844	-253.1804656982422	-3199.353759765625	183.8337249755859	-287.2884521484375	-3183.756103515625	151.0819091796875	-313.9178466796875	-3201.93310546875	156.239990234375	-260.6795349121094	-3864.19775390625	356.6060180664062	-406.35693359375
